<?xml version="1.0" encoding="iso-8859-1"?>
<!-- Generator: Adobe Illustrator 17.1.0, SVG Export Plug-In . SVG Version: 6.00 Build 0)  -->
<!DOCTYPE svg PUBLIC "-//W3C//DTD SVG 1.1//EN" "http://www.w3.org/Graphics/SVG/1.1/DTD/svg11.dtd">
<svg version="1.1" id="Capa_1" xmlns="http://www.w3.org/2000/svg" xmlns:xlink="http://www.w3.org/1999/xlink" x="0px" y="0px"
	 viewBox="0 0 213.9 213.9" style="enable-background:new 0 0 213.9 213.9;" xml:space="preserve">
<path d="M72.646,213.9c-30.237,0-54.836-24.6-54.836-54.836s24.599-54.836,54.836-54.836s54.836,24.6,54.836,54.836
	S102.883,213.9,72.646,213.9z M72.646,110.229c-26.928,0-48.836,21.907-48.836,48.836S45.718,207.9,72.646,207.9
	c26.929,0,48.836-21.907,48.836-48.836S99.574,110.229,72.646,110.229z M82.824,188.283c-9.856,0-17.875-8.019-17.875-17.874
	v-20.918c0-9.855,8.019-17.874,17.875-17.874s17.875,8.019,17.875,17.874v20.918C100.699,180.265,92.68,188.283,82.824,188.283z
	 M82.824,137.617c-6.548,0-11.875,5.327-11.875,11.874v20.918c0,6.547,5.327,11.874,11.875,11.874s11.875-5.327,11.875-11.874
	v-20.918C94.699,142.944,89.372,137.617,82.824,137.617z M53.616,188.283c-1.657,0-3-1.343-3-3v-41.086l-2.869,4.131
	c-0.946,1.361-2.816,1.696-4.175,0.753c-1.361-0.944-1.698-2.814-0.753-4.175l8.333-12c0.748-1.078,2.107-1.541,3.361-1.152
	c1.251,0.393,2.104,1.552,2.104,2.863v50.666C56.616,186.94,55.273,188.283,53.616,188.283z M161.724,145.292
	c-18.949,0-34.365-15.416-34.365-34.365s15.416-34.365,34.365-34.365s34.366,15.416,34.366,34.365S180.674,145.292,161.724,145.292z
	 M161.724,82.562c-15.641,0-28.365,12.725-28.365,28.365s12.725,28.365,28.365,28.365c15.642,0,28.366-12.725,28.366-28.365
	S177.366,82.562,161.724,82.562z M170.99,125.921c-0.9,0-1.79-0.403-2.381-1.172l-13.128-17.087l-0.02,2.199
	c-0.015,1.647-1.355,2.974-2.999,2.974c-0.01,0-0.019,0-0.027,0c-1.657-0.015-2.988-1.37-2.974-3.026l0.097-10.901
	c0.012-1.28,0.834-2.412,2.048-2.818c1.209-0.405,2.55,0.001,3.331,1.017l18.43,23.987c1.01,1.314,0.763,3.197-0.551,4.207
	C172.271,125.719,171.628,125.921,170.99,125.921z M97.699,83.73c-23.085,0-41.866-18.78-41.866-41.865S74.614,0,97.699,0
	s41.865,18.78,41.865,41.865S120.784,83.73,97.699,83.73z M97.699,6C77.923,6,61.833,22.089,61.833,41.865
	S77.923,77.73,97.699,77.73s35.865-16.089,35.865-35.865S117.475,6,97.699,6z M90.107,60.851c-3.643,0-7.067-1.418-9.643-3.994
	l-0.533-0.533c-2.004-2.003-3.107-4.667-3.107-7.501c0-2.833,1.104-5.497,3.107-7.501c1.172-1.172,3.071-1.172,4.243,0
	c1.172,1.171,1.172,3.07,0,4.242c-0.871,0.871-1.35,2.028-1.35,3.259c0,1.231,0.479,2.389,1.35,3.259l0.533,0.533
	c2.979,2.977,7.823,2.977,10.802,0c1.442-1.442,2.236-3.36,2.236-5.4s-0.794-3.958-2.236-5.4l-5.914-5.914
	c-0.602-0.602-0.919-1.431-0.874-2.28c0.045-0.85,0.449-1.64,1.111-2.175l12.256-9.899c1.195-0.965,2.922-0.872,4.006,0.213
	l12.257,12.257c1.172,1.171,1.172,3.071,0,4.242c-1.172,1.172-3.07,1.172-4.242,0l-10.35-10.349l-7.563,6.107l3.555,3.556
	c2.575,2.575,3.994,5.999,3.994,9.643c0,3.643-1.418,7.066-3.994,9.643C97.174,59.433,93.749,60.851,90.107,60.851z"/>
<g>
</g>
<g>
</g>
<g>
</g>
<g>
</g>
<g>
</g>
<g>
</g>
<g>
</g>
<g>
</g>
<g>
</g>
<g>
</g>
<g>
</g>
<g>
</g>
<g>
</g>
<g>
</g>
<g>
</g>
</svg>
