<?xml version="1.0" encoding="iso-8859-1"?>
<!-- Generator: Adobe Illustrator 19.0.0, SVG Export Plug-In . SVG Version: 6.00 Build 0)  -->
<svg version="1.1" id="Layer_1" xmlns="http://www.w3.org/2000/svg" xmlns:xlink="http://www.w3.org/1999/xlink" x="0px" y="0px"
	 viewBox="0 0 496 496" style="enable-background:new 0 0 496 496;" xml:space="preserve">
<g>
	<g>
		<g>
			<path d="M496,328V72h-48V40c0-22.056-17.944-40-40-40c-22.056,0-40,17.944-40,40v32H0v256h16.408
				c4.056,44.784,41.768,80,87.592,80c45.824,0,83.536-35.216,87.592-80h43.96C205.192,341.888,184,372.488,184,408
				c0,48.52,39.48,88,88,88s88-39.48,88-88c0-35.512-21.192-66.112-51.552-80H368v23.208l-8.688,43.424L408,443.312l48.688-48.68
				L448,351.208V328H496z M448,272h16v-16h-16v-32h16v-16h-16v-32h16v-16h-16v-32h16v-16h-16V88h32v224h-32V272z M104,392
				c-37,0-67.536-28.056-71.528-64H96h16c4.416,0,8,3.584,8,8c0,4.416-3.584,8-8,8H96c-4.416,0-8-3.584-8-8H72
				c0,13.232,10.768,24,24,24v16h16v-16c13.232,0,24-10.768,24-24c0-2.816-0.576-5.488-1.472-8h41C171.536,363.944,141,392,104,392z
				 M344,408c0,39.704-32.296,72-72,72c-39.704,0-72-32.296-72-72c0-39.704,32.296-72,72-72C311.704,336,344,368.296,344,408z
				 M368,112H240v16h128v32H240v16h128v32H240v16h128v32h-32v16h32v40H112H96H16V88h352V112z M384,40c0-13.232,10.768-24,24-24
				s24,10.768,24,24v16h-48.008L384,40z M383.984,72H432v272h-16v-32h-16v32h-16.152L383.984,72z M416,412.688V384h-16v28.688
				l-23.312-23.32L382.56,360h51.008l5.744,29.368L416,412.688z"/>
			<path d="M128,296c52.936,0,96-43.064,96-96c0-52.936-43.064-96-96-96c-52.936,0-96,43.064-96,96C32,252.936,75.064,296,128,296z
				 M128,120c44.112,0,80,35.888,80,80s-35.888,80-80,80s-80-35.888-80-80S83.888,120,128,120z"/>
			<rect x="72" y="240" width="112" height="16"/>
			<path d="M184,216h-16v-40h16v-20.944l-56-28l-56,28V176h16v40H72v16h112V216z M120,216h-16v-40h16V216z M152,216h-16v-40h16V216z
				 M97.888,160L128,144.944L158.112,160H97.888z"/>
			<path d="M264,352v16c-13.232,0-24,10.768-24,24s10.768,24,24,24h16c4.416,0,8,3.584,8,8c0,4.416-3.584,8-8,8h-16
				c-4.416,0-8-3.584-8-8h-16c0,13.232,10.768,24,24,24v16h16v-16c13.232,0,24-10.768,24-24s-10.768-24-24-24h-16
				c-4.416,0-8-3.584-8-8c0-4.416,3.584-8,8-8h16c4.416,0,8,3.584,8,8h16c0-13.232-10.768-24-24-24v-16H264z"/>
		</g>
	</g>
</g>
<g>
</g>
<g>
</g>
<g>
</g>
<g>
</g>
<g>
</g>
<g>
</g>
<g>
</g>
<g>
</g>
<g>
</g>
<g>
</g>
<g>
</g>
<g>
</g>
<g>
</g>
<g>
</g>
<g>
</g>
</svg>
